<?xml version="1.0" encoding="utf-8"?>
<svg viewBox="45.874 134.924 370.392 121.762" width="370.392" height="121.762" xmlns="http://www.w3.org/2000/svg">
  <rect x="45.695" y="134.908" width="370.97" height="121.852" style="fill: rgb(214, 121, 121);" transform="matrix(1, 0, -0.002794, 1, 0.547227, 0)"/>
  <path d="M 68.746 191.482 L 68.746 157.382 L 77.846 157.382 C 81.446 157.382 84.056 158.049 85.676 159.382 C 87.289 160.715 88.096 162.749 88.096 165.482 C 88.096 166.749 87.923 167.849 87.576 168.782 C 87.223 169.715 86.829 170.499 86.396 171.132 C 85.896 171.865 85.346 172.499 84.746 173.032 C 85.546 173.332 86.296 173.715 86.996 174.182 C 87.696 174.649 88.313 175.215 88.846 175.882 C 89.379 176.549 89.806 177.339 90.126 178.252 C 90.439 179.172 90.596 180.249 90.596 181.482 C 90.596 182.849 90.413 184.139 90.046 185.352 C 89.679 186.572 89.063 187.632 88.196 188.532 C 87.329 189.432 86.179 190.149 84.746 190.682 C 83.313 191.215 81.529 191.482 79.396 191.482 L 68.746 191.482 Z M 72.946 161.132 L 72.946 172.182 L 81.296 172.182 C 81.763 171.815 82.179 171.332 82.546 170.732 C 82.879 170.232 83.179 169.605 83.446 168.852 C 83.713 168.105 83.846 167.199 83.846 166.132 C 83.846 164.165 83.339 162.839 82.326 162.152 C 81.306 161.472 79.879 161.132 78.046 161.132 L 72.946 161.132 Z M 72.946 175.682 L 72.946 187.732 L 79.746 187.732 C 81.946 187.732 83.596 187.165 84.696 186.032 C 85.796 184.899 86.346 183.382 86.346 181.482 C 86.346 180.649 86.239 179.882 86.026 179.182 C 85.806 178.482 85.429 177.872 84.896 177.352 C 84.363 176.839 83.646 176.432 82.746 176.132 C 81.846 175.832 80.729 175.682 79.396 175.682 L 72.946 175.682 ZM 110.694 185.632 L 110.694 179.932 C 110.028 179.965 109.394 179.999 108.794 180.032 C 108.194 180.065 107.604 180.105 107.024 180.152 C 106.438 180.205 105.911 180.265 105.444 180.332 C 103.044 180.632 101.344 181.155 100.344 181.902 C 99.344 182.655 98.844 183.732 98.844 185.132 C 98.844 186.299 99.204 187.172 99.924 187.752 C 100.638 188.339 101.578 188.632 102.744 188.632 C 104.344 188.632 105.771 188.355 107.024 187.802 C 108.271 187.255 109.494 186.532 110.694 185.632 Z M 111.144 191.882 L 110.644 189.132 C 109.078 190.032 107.621 190.755 106.274 191.302 C 104.921 191.855 103.461 192.132 101.894 192.132 C 99.661 192.132 97.888 191.589 96.574 190.502 C 95.254 189.422 94.594 187.632 94.594 185.132 C 94.594 183.832 94.928 182.699 95.594 181.732 C 96.261 180.765 97.138 179.955 98.224 179.302 C 99.304 178.655 100.528 178.149 101.894 177.782 C 103.261 177.415 104.661 177.182 106.094 177.082 C 106.694 177.015 107.478 176.955 108.444 176.902 C 109.411 176.855 110.161 176.815 110.694 176.782 C 110.694 175.615 110.661 174.575 110.594 173.662 C 110.528 172.742 110.328 171.955 109.994 171.302 C 109.661 170.655 109.171 170.165 108.524 169.832 C 107.871 169.499 106.944 169.332 105.744 169.332 C 104.778 169.332 103.844 169.389 102.944 169.502 C 102.044 169.622 101.244 169.749 100.544 169.882 C 99.711 170.049 98.944 170.232 98.244 170.432 L 97.444 166.982 C 98.278 166.782 99.178 166.599 100.144 166.432 C 100.978 166.265 101.944 166.122 103.044 166.002 C 104.144 165.889 105.328 165.832 106.594 165.832 C 108.294 165.832 109.671 166.082 110.724 166.582 C 111.771 167.082 112.588 167.755 113.174 168.602 C 113.754 169.455 114.154 170.422 114.374 171.502 C 114.588 172.589 114.694 173.732 114.694 174.932 L 114.694 186.932 C 114.694 187.399 114.704 187.889 114.724 188.402 C 114.738 188.922 114.771 189.432 114.824 189.932 C 114.871 190.432 114.928 190.949 114.994 191.482 L 111.144 191.882 ZM 121.793 191.482 L 121.793 170.382 C 121.793 169.615 121.709 168.415 121.543 166.782 L 125.243 166.282 L 125.643 169.932 L 125.693 169.932 C 126.293 169.165 126.876 168.499 127.443 167.932 C 128.009 167.365 128.603 166.872 129.223 166.452 C 129.836 166.039 130.426 165.832 130.993 165.832 C 131.759 165.799 132.826 165.882 134.193 166.082 L 133.293 169.932 C 132.193 169.732 131.426 169.649 130.993 169.682 C 130.426 169.682 129.826 169.949 129.193 170.482 C 128.559 171.015 128.009 171.582 127.543 172.182 C 126.943 172.915 126.359 173.749 125.793 174.682 L 125.793 191.482 L 121.793 191.482 ZM 138.542 189.982 L 138.542 154.032 L 142.542 153.582 L 142.542 168.482 C 143.275 167.982 144.042 167.549 144.842 167.182 C 145.508 166.849 146.258 166.539 147.092 166.252 C 147.925 165.972 148.758 165.832 149.592 165.832 C 150.958 165.832 152.252 166.099 153.472 166.632 C 154.685 167.165 155.752 167.965 156.672 169.032 C 157.585 170.099 158.308 171.449 158.842 173.082 C 159.375 174.715 159.642 176.649 159.642 178.882 C 159.642 181.349 159.302 183.422 158.622 185.102 C 157.935 186.789 157.018 188.149 155.872 189.182 C 154.718 190.215 153.408 190.965 151.942 191.432 C 150.475 191.899 148.975 192.132 147.442 192.132 C 145.908 192.132 144.582 192.025 143.462 191.812 C 142.348 191.592 141.425 191.349 140.692 191.082 C 139.825 190.749 139.108 190.382 138.542 189.982 Z M 142.542 172.082 L 142.542 187.782 C 142.975 187.949 143.442 188.089 143.942 188.202 C 144.442 188.322 144.985 188.422 145.572 188.502 C 146.152 188.589 146.775 188.632 147.442 188.632 C 148.975 188.632 150.258 188.415 151.292 187.982 C 152.325 187.549 153.142 186.915 153.742 186.082 C 154.342 185.249 154.768 184.239 155.022 183.052 C 155.268 181.872 155.392 180.549 155.392 179.082 C 155.392 177.915 155.268 176.749 155.022 175.582 C 154.768 174.415 154.375 173.372 153.842 172.452 C 153.308 171.539 152.652 170.789 151.872 170.202 C 151.085 169.622 150.175 169.332 149.142 169.332 C 148.442 169.332 147.708 169.472 146.942 169.752 C 146.175 170.039 145.458 170.365 144.792 170.732 C 144.025 171.132 143.275 171.582 142.542 172.082 ZM 179.49 185.632 L 179.49 179.932 C 178.823 179.965 178.19 179.999 177.59 180.032 C 176.99 180.065 176.4 180.105 175.82 180.152 C 175.233 180.205 174.707 180.265 174.24 180.332 C 171.84 180.632 170.14 181.155 169.14 181.902 C 168.14 182.655 167.64 183.732 167.64 185.132 C 167.64 186.299 168 187.172 168.72 187.752 C 169.433 188.339 170.373 188.632 171.54 188.632 C 173.14 188.632 174.567 188.355 175.82 187.802 C 177.067 187.255 178.29 186.532 179.49 185.632 Z M 179.94 191.882 L 179.44 189.132 C 177.873 190.032 176.417 190.755 175.07 191.302 C 173.717 191.855 172.257 192.132 170.69 192.132 C 168.457 192.132 166.683 191.589 165.37 190.502 C 164.05 189.422 163.39 187.632 163.39 185.132 C 163.39 183.832 163.723 182.699 164.39 181.732 C 165.057 180.765 165.933 179.955 167.02 179.302 C 168.1 178.655 169.323 178.149 170.69 177.782 C 172.057 177.415 173.457 177.182 174.89 177.082 C 175.49 177.015 176.273 176.955 177.24 176.902 C 178.207 176.855 178.957 176.815 179.49 176.782 C 179.49 175.615 179.457 174.575 179.39 173.662 C 179.323 172.742 179.123 171.955 178.79 171.302 C 178.457 170.655 177.967 170.165 177.32 169.832 C 176.667 169.499 175.74 169.332 174.54 169.332 C 173.573 169.332 172.64 169.389 171.74 169.502 C 170.84 169.622 170.04 169.749 169.34 169.882 C 168.507 170.049 167.74 170.232 167.04 170.432 L 166.24 166.982 C 167.073 166.782 167.973 166.599 168.94 166.432 C 169.773 166.265 170.74 166.122 171.84 166.002 C 172.94 165.889 174.123 165.832 175.39 165.832 C 177.09 165.832 178.467 166.082 179.52 166.582 C 180.567 167.082 181.383 167.755 181.97 168.602 C 182.55 169.455 182.95 170.422 183.17 171.502 C 183.383 172.589 183.49 173.732 183.49 174.932 L 183.49 186.932 C 183.49 187.399 183.5 187.889 183.52 188.402 C 183.533 188.922 183.567 189.432 183.62 189.932 C 183.667 190.432 183.723 190.949 183.79 191.482 L 179.94 191.882 ZM 190.588 191.482 L 190.588 170.382 C 190.588 169.615 190.505 168.415 190.338 166.782 L 194.038 166.282 L 194.438 169.932 L 194.488 169.932 C 195.088 169.165 195.672 168.499 196.238 167.932 C 196.805 167.365 197.398 166.872 198.018 166.452 C 198.632 166.039 199.222 165.832 199.788 165.832 C 200.555 165.799 201.622 165.882 202.988 166.082 L 202.088 169.932 C 200.988 169.732 200.222 169.649 199.788 169.682 C 199.222 169.682 198.622 169.949 197.988 170.482 C 197.355 171.015 196.805 171.582 196.338 172.182 C 195.738 172.915 195.155 173.749 194.588 174.682 L 194.588 191.482 L 190.588 191.482 ZM 207.387 191.482 L 207.387 166.282 L 211.387 165.832 L 211.387 191.482 L 207.387 191.482 Z M 206.737 159.132 C 206.737 158.365 206.997 157.725 207.517 157.212 C 208.031 156.692 208.671 156.432 209.437 156.432 C 210.237 156.432 210.914 156.692 211.467 157.212 C 212.014 157.725 212.287 158.365 212.287 159.132 C 212.287 159.899 212.014 160.539 211.467 161.052 C 210.914 161.572 210.237 161.832 209.437 161.832 C 208.671 161.832 208.031 161.572 207.517 161.052 C 206.997 160.539 206.737 159.899 206.737 159.132 ZM 232.887 166.882 L 232.187 170.432 C 230.787 169.999 229.547 169.705 228.467 169.552 C 227.38 169.405 226.387 169.332 225.487 169.332 C 224.32 169.332 223.347 169.615 222.567 170.182 C 221.78 170.749 221.387 171.482 221.387 172.382 C 221.42 173.182 221.77 173.865 222.437 174.432 C 223.103 174.999 223.88 175.505 224.767 175.952 C 225.647 176.405 226.63 176.899 227.717 177.432 C 228.797 177.965 229.813 178.565 230.767 179.232 C 231.713 179.899 232.487 180.699 233.087 181.632 C 233.687 182.565 234.003 183.682 234.037 184.982 C 234.003 186.382 233.697 187.539 233.117 188.452 C 232.53 189.372 231.78 190.105 230.867 190.652 C 229.947 191.205 228.953 191.592 227.887 191.812 C 226.82 192.025 225.82 192.132 224.887 192.132 C 223.687 192.132 222.447 192.065 221.167 191.932 C 219.88 191.799 218.503 191.515 217.037 191.082 L 217.787 187.482 C 219.287 187.882 220.653 188.172 221.887 188.352 C 223.12 188.539 224.137 188.632 224.937 188.632 C 225.537 188.632 226.13 188.565 226.717 188.432 C 227.297 188.299 227.82 188.105 228.287 187.852 C 228.753 187.605 229.13 187.282 229.417 186.882 C 229.697 186.482 229.837 186.032 229.837 185.532 C 229.803 184.599 229.487 183.805 228.887 183.152 C 228.287 182.505 227.513 181.922 226.567 181.402 C 225.613 180.889 224.597 180.372 223.517 179.852 C 222.43 179.339 221.413 178.739 220.467 178.052 C 219.513 177.372 218.72 176.555 218.087 175.602 C 217.453 174.655 217.137 173.482 217.137 172.082 C 217.137 171.082 217.397 170.189 217.917 169.402 C 218.43 168.622 219.097 167.972 219.917 167.452 C 220.73 166.939 221.63 166.539 222.617 166.252 C 223.597 165.972 224.553 165.832 225.487 165.832 C 226.453 165.832 227.537 165.905 228.737 166.052 C 229.937 166.205 231.32 166.482 232.887 166.882 ZM 239.435 191.482 L 239.435 154.032 L 243.435 153.582 L 243.435 176.132 L 254.585 166.332 L 260.085 166.332 L 249.185 175.882 L 260.485 191.482 L 255.435 191.482 L 246.235 178.432 L 243.435 180.882 L 243.435 191.482 L 239.435 191.482 ZM 278.484 185.632 L 278.484 179.932 C 277.817 179.965 277.184 179.999 276.584 180.032 C 275.984 180.065 275.394 180.105 274.814 180.152 C 274.227 180.205 273.701 180.265 273.234 180.332 C 270.834 180.632 269.134 181.155 268.134 181.902 C 267.134 182.655 266.634 183.732 266.634 185.132 C 266.634 186.299 266.994 187.172 267.714 187.752 C 268.427 188.339 269.367 188.632 270.534 188.632 C 272.134 188.632 273.561 188.355 274.814 187.802 C 276.061 187.255 277.284 186.532 278.484 185.632 Z M 278.934 191.882 L 278.434 189.132 C 276.867 190.032 275.411 190.755 274.064 191.302 C 272.711 191.855 271.251 192.132 269.684 192.132 C 267.451 192.132 265.677 191.589 264.364 190.502 C 263.044 189.422 262.384 187.632 262.384 185.132 C 262.384 183.832 262.717 182.699 263.384 181.732 C 264.051 180.765 264.927 179.955 266.014 179.302 C 267.094 178.655 268.317 178.149 269.684 177.782 C 271.051 177.415 272.451 177.182 273.884 177.082 C 274.484 177.015 275.267 176.955 276.234 176.902 C 277.201 176.855 277.951 176.815 278.484 176.782 C 278.484 175.615 278.451 174.575 278.384 173.662 C 278.317 172.742 278.117 171.955 277.784 171.302 C 277.451 170.655 276.961 170.165 276.314 169.832 C 275.661 169.499 274.734 169.332 273.534 169.332 C 272.567 169.332 271.634 169.389 270.734 169.502 C 269.834 169.622 269.034 169.749 268.334 169.882 C 267.501 170.049 266.734 170.232 266.034 170.432 L 265.234 166.982 C 266.067 166.782 266.967 166.599 267.934 166.432 C 268.767 166.265 269.734 166.122 270.834 166.002 C 271.934 165.889 273.117 165.832 274.384 165.832 C 276.084 165.832 277.461 166.082 278.514 166.582 C 279.561 167.082 280.377 167.755 280.964 168.602 C 281.544 169.455 281.944 170.422 282.164 171.502 C 282.377 172.589 282.484 173.732 282.484 174.932 L 282.484 186.932 C 282.484 187.399 282.494 187.889 282.514 188.402 C 282.527 188.922 282.561 189.432 282.614 189.932 C 282.661 190.432 282.717 190.949 282.784 191.482 L 278.934 191.882 Z" transform="matrix(1, 0, 0, 1, 0, 0)" style="fill: rgb(255, 255, 255); white-space: pre;"/>
  <g transform="matrix(0.271021, 0, 0, 0.271021, 290.177189, 131.246126)">
    <g fill-rule="evenodd" stroke-width="5">
      <path d="m189.33 276.57l-121.69 137.6c-13.07 15.271-4.3119 29.769 10.07 14.356 5.1407-6.0988 125.38-137.36 130.32-141.92 8.8997-9.141-10.57-23.696-18.695-10.037z" fill="#fff" stroke="#000"/>
      <path d="m65.352 433.19l6.6135 0.0824 131.66-141.49-8.8882-5.8528-129.39 147.26z" fill-opacity=".1"/>
      <path d="m184.98 299.54c-45.203-31.311-81.552-73.358-72.11-142.2 10.729-78.22 82.76-130.54 154.67-118.95 80.675 13.009 134.3 97.983 121.61 182.93-14.091 94.308-136.38 158.65-204.17 78.214z" fill="#f84f73"/>
      <path d="m251.37 185.3c1.7262 47.638-48.108 60.195-63.924 54.727-7.6778 14.964-38.63 12.609-51.805 11.658-13.017-19.386-19.666-42.442-21.734-61.781 10.993 10.102 42.684 15.87 56.168 20.332 19.489-6.208 42.36-17.555 66.206-21.678-7.7924-19.01 15.213-18.218 15.089-3.2576z" fill="#fff"/>
      <path d="m248.18 187.19c-2.0624 48.203-47.026 54.539-62.841 49.071-7.6778 14.964-41.878 8.65-55.053 7.6992-8.6872-15.427-11.006-26.606-15.78-45.38 10.993 10.102 42.684 11.911 56.168 16.373 19.489-6.208 45.066-19.252 68.912-23.375-7.7923-19.01 8.7184-19.349 8.5939-4.3887z" fill="#ff001d"/>
      <path d="m230.45 163.05c-31.392 5.0901-54.124 1.1311-68.737-6.2212-21.108-5.0901-35.18-18.098-40.593-29.409 5.9536-14.139 17.32-30.54 30.309-46.942 15.155 9.6146 13.531 20.926 30.309 37.327s48.17 28.278 63.325 36.196c4.8711 5.0901-7.0361 17.532-14.613 9.0491z" fill="#fff"/>
      <path d="m231.97 159.76c-31.392 5.0901-55.206 1.1312-69.82-6.2212-21.108-5.0901-34.098-18.098-39.51-29.409 5.9536-14.139 11.366-22.623 24.356-39.024 15.155 9.6146 16.237 19.795 33.016 36.196 16.778 16.401 44.382 25.45 59.536 33.368 4.8712 5.0901 0 13.574-7.5773 5.0901z" fill="#ff001d"/>
      <path d="m256.99 155.44c-3.2474-16.967-2.1649-45.245 7.5774-69.564 4.3299-12.442-0.54126-26.582 12.99-42.417 11.907 1.1311 63.325 32.237 64.949 39.024 1.6237 6.7868-25.438 30.54-30.851 33.368-5.4124 2.8278-31.933 15.836-33.016 63.909 0 2.2623-17.861-26.016-21.65-24.319z" fill="#fff"/>
      <path d="m261.74 160.89c-3.2475-16.967-3.2475-50.901 6.4948-75.22 4.3299-12.442 2.165-25.45 15.696-41.286 11.907 1.1311 53.582 27.713 55.206 34.5 1.6237 6.7868-24.356 29.975-29.768 32.803-5.4124 2.8278-32.474 16.401-33.557 64.474 0 2.2623-10.284-16.967-14.072-15.27z" fill="#ff001d"/>
      <path d="m277.43 201.87c19.485-10.18 62.242-15.27 69.82-7.9179 13.531-1.6967 39.51-15.27 40.052-2.8278 1.6237 19.795-11.907 70.696-17.861 76.351-8.1186 0.56555-23.273-23.188-34.098-15.836 0-9.6146-38.428-24.885-68.737-19.795-6.4949-4.5245-5.9536-26.582 10.825-29.975z" fill="#fff"/>
      <path d="m277.98 205.57c19.485-10.18 61.16-14.139 68.737-6.7868 13.531-1.6967 40.593-13.574 41.134-1.1311 1.6237 19.795-10.284 59.384-16.237 65.04-8.1186 0.56558-23.273-22.623-34.098-15.27 0-9.6146-37.887-23.754-68.196-18.664-4.8712-3.9589-8.1186-19.795 8.6598-23.188z" fill="#ff001d"/>
      <path d="m247.61 250.59c8.1186 1.1311 25.979 26.016 21.65 45.811 8.6598 10.746 12.99 29.975 2.165 36.762-11.907 3.959-58.454-5.6556-60.078-14.705-1.6237-9.049 3.2474-11.311 7.5773-15.836 8.1186-11.311 5.4124-31.106 2.7062-43.548 3.2475-10.18 15.696-15.27 25.979-8.4835z" fill="#fff"/>
      <path d="m245.5 252.51c8.1186 1.1311 25.438 23.188 21.108 42.983 8.6598 10.746 11.366 31.106 0.54123 37.893-11.907 3.959-50.335-4.5245-51.959-13.574-1.6237-9.049 1.0825-10.746 5.4124-15.27 8.1186-11.311 8.1186-32.237 5.4124-44.68 3.2474-10.18 9.201-14.139 19.485-7.3523z" fill="#ff001d"/>
      <path d="m250.89 173.73c7.1982 24.319-26.871 13.792-28.581 8.8021-4.6332-13.523 8.4321-25.184 19.883-26.348 20.484-2.0836 35.509 18.724 35.373 39.145-0.20016 29.969-26.079 65.653-52.76 64.071-35.562-2.109-69.852-52.21-66.776-88.807 3.8703-46.055 51.244-93.757 93.02-88.935 50.597 5.8402 103.58 78.028 97.359 130.75-7.3347 62.136-79.713 99.695-136.56 91.51-65.634-9.4493-109.49-78.144-100.05-146.98 10.729-78.22 82.76-130.54 154.67-118.95 80.675 13.009 134.3 97.983 121.61 182.93-14.091 94.308-136.38 164.25-203.4 75.014" fill="none" stroke="#000"/>
    </g>
  </g>
  <path d="M 109.098 219.183 L 109.098 228.683 L 111.528 228.683 C 112.188 228.683 112.808 228.6 113.388 228.433 C 113.968 228.266 114.478 227.993 114.918 227.613 C 115.358 227.24 115.701 226.746 115.948 226.133 C 116.201 225.52 116.328 224.776 116.328 223.903 C 116.328 223.083 116.215 222.376 115.988 221.783 C 115.761 221.19 115.441 220.7 115.028 220.313 C 114.615 219.933 114.111 219.65 113.518 219.463 C 112.918 219.276 112.255 219.183 111.528 219.183 L 109.098 219.183 Z M 107.578 230.073 L 107.578 217.793 L 111.528 217.793 C 112.495 217.793 113.371 217.913 114.158 218.153 C 114.945 218.393 115.621 218.766 116.188 219.273 C 116.748 219.78 117.181 220.416 117.488 221.183 C 117.795 221.95 117.948 222.856 117.948 223.903 C 117.948 224.956 117.781 225.87 117.448 226.643 C 117.108 227.416 116.651 228.06 116.078 228.573 C 115.505 229.08 114.828 229.456 114.048 229.703 C 113.268 229.95 112.428 230.073 111.528 230.073 L 107.578 230.073 ZM 126.584 228.653 L 126.854 229.853 C 126.58 229.94 126.297 230.013 126.004 230.073 C 125.71 230.133 125.387 230.186 125.034 230.233 C 124.674 230.28 124.304 230.303 123.924 230.303 C 123.324 230.303 122.764 230.22 122.244 230.053 C 121.73 229.886 121.28 229.616 120.894 229.243 C 120.514 228.87 120.214 228.386 119.994 227.793 C 119.767 227.2 119.654 226.473 119.654 225.613 C 119.654 224.833 119.764 224.143 119.984 223.543 C 120.197 222.95 120.494 222.453 120.874 222.053 C 121.247 221.653 121.69 221.35 122.204 221.143 C 122.71 220.943 123.264 220.843 123.864 220.843 C 124.457 220.843 124.967 220.956 125.394 221.183 C 125.827 221.41 126.187 221.716 126.474 222.103 C 126.754 222.496 126.964 222.953 127.104 223.473 C 127.237 224 127.304 224.55 127.304 225.123 L 127.034 225.913 L 121.224 225.913 C 121.224 226.286 121.27 226.66 121.364 227.033 C 121.464 227.406 121.63 227.743 121.864 228.043 C 122.097 228.343 122.404 228.583 122.784 228.763 C 123.157 228.95 123.627 229.043 124.194 229.043 C 124.554 229.043 124.884 229.023 125.184 228.983 C 125.484 228.943 125.744 228.896 125.964 228.843 C 126.184 228.79 126.39 228.726 126.584 228.653 Z M 121.274 224.763 L 125.814 224.763 C 125.814 224.676 125.794 224.49 125.754 224.203 C 125.72 223.916 125.637 223.616 125.504 223.303 C 125.37 222.99 125.167 222.71 124.894 222.463 C 124.62 222.223 124.254 222.103 123.794 222.103 C 123.294 222.103 122.88 222.206 122.554 222.413 C 122.227 222.626 121.97 222.876 121.784 223.163 C 121.59 223.45 121.457 223.743 121.384 224.043 C 121.31 224.343 121.274 224.583 121.274 224.763 ZM 129.268 230.073 L 129.268 216.593 L 130.708 216.433 L 130.708 230.073 L 129.268 230.073 ZM 133.299 230.073 L 133.299 221.003 L 134.739 220.843 L 134.739 230.073 L 133.299 230.073 Z M 133.059 218.423 C 133.059 218.15 133.152 217.92 133.339 217.733 C 133.526 217.546 133.756 217.453 134.029 217.453 C 134.322 217.453 134.566 217.546 134.759 217.733 C 134.959 217.92 135.059 218.15 135.059 218.423 C 135.059 218.703 134.959 218.936 134.759 219.123 C 134.566 219.31 134.322 219.403 134.029 219.403 C 133.756 219.403 133.526 219.31 133.339 219.123 C 133.152 218.936 133.059 218.703 133.059 218.423 ZM 139.54 230.073 L 136.21 221.023 L 137.79 221.023 L 139.99 227.413 L 140.39 228.833 L 140.4 228.833 L 140.82 227.413 L 143.16 221.023 L 144.67 221.023 L 141.16 230.073 L 139.54 230.073 ZM 152.459 228.653 L 152.729 229.853 C 152.455 229.94 152.172 230.013 151.879 230.073 C 151.585 230.133 151.262 230.186 150.909 230.233 C 150.549 230.28 150.179 230.303 149.799 230.303 C 149.199 230.303 148.639 230.22 148.119 230.053 C 147.605 229.886 147.155 229.616 146.769 229.243 C 146.389 228.87 146.089 228.386 145.869 227.793 C 145.642 227.2 145.529 226.473 145.529 225.613 C 145.529 224.833 145.639 224.143 145.859 223.543 C 146.072 222.95 146.369 222.453 146.749 222.053 C 147.122 221.653 147.565 221.35 148.079 221.143 C 148.585 220.943 149.139 220.843 149.739 220.843 C 150.332 220.843 150.842 220.956 151.269 221.183 C 151.702 221.41 152.062 221.716 152.349 222.103 C 152.629 222.496 152.839 222.953 152.979 223.473 C 153.112 224 153.179 224.55 153.179 225.123 L 152.909 225.913 L 147.099 225.913 C 147.099 226.286 147.145 226.66 147.239 227.033 C 147.339 227.406 147.505 227.743 147.739 228.043 C 147.972 228.343 148.279 228.583 148.659 228.763 C 149.032 228.95 149.502 229.043 150.069 229.043 C 150.429 229.043 150.759 229.023 151.059 228.983 C 151.359 228.943 151.619 228.896 151.839 228.843 C 152.059 228.79 152.265 228.726 152.459 228.653 Z M 147.149 224.763 L 151.689 224.763 C 151.689 224.676 151.669 224.49 151.629 224.203 C 151.595 223.916 151.512 223.616 151.379 223.303 C 151.245 222.99 151.042 222.71 150.769 222.463 C 150.495 222.223 150.129 222.103 149.669 222.103 C 149.169 222.103 148.755 222.206 148.429 222.413 C 148.102 222.626 147.845 222.876 147.659 223.163 C 147.465 223.45 147.332 223.743 147.259 224.043 C 147.185 224.343 147.149 224.583 147.149 224.763 ZM 155.153 230.073 L 155.153 222.473 C 155.153 222.2 155.123 221.77 155.063 221.183 L 156.403 221.003 L 156.543 222.313 L 156.563 222.313 C 156.777 222.04 156.987 221.8 157.193 221.593 C 157.393 221.393 157.607 221.216 157.833 221.063 C 158.053 220.916 158.267 220.843 158.473 220.843 C 158.747 220.83 159.13 220.86 159.623 220.933 L 159.293 222.313 C 158.9 222.24 158.627 222.21 158.473 222.223 C 158.267 222.223 158.05 222.32 157.823 222.513 C 157.597 222.706 157.397 222.91 157.223 223.123 C 157.01 223.39 156.8 223.69 156.593 224.023 L 156.593 230.073 L 155.153 230.073 ZM 163.647 229.843 L 160.037 221.023 L 161.567 221.023 L 163.257 225.103 C 163.424 225.503 163.577 225.9 163.717 226.293 C 163.851 226.686 163.974 227.04 164.087 227.353 C 164.214 227.726 164.327 228.086 164.427 228.433 L 164.447 228.433 C 164.554 228.086 164.674 227.726 164.807 227.353 C 164.914 227.04 165.037 226.686 165.177 226.293 C 165.324 225.9 165.474 225.503 165.627 225.103 L 167.197 221.023 L 168.707 221.023 L 164.427 231.823 C 164.261 232.263 164.041 232.646 163.767 232.973 C 163.501 233.293 163.241 233.563 162.987 233.783 C 162.687 234.036 162.374 234.253 162.047 234.433 L 161.347 233.183 C 161.601 233.063 161.834 232.913 162.047 232.733 C 162.241 232.58 162.434 232.386 162.627 232.153 C 162.821 231.92 162.977 231.64 163.097 231.313 L 163.647 229.843 ZM 181.091 218.033 L 180.841 219.493 C 180.547 219.42 180.247 219.353 179.941 219.293 C 179.661 219.233 179.344 219.18 178.991 219.133 C 178.637 219.093 178.267 219.073 177.881 219.073 C 176.994 219.073 176.361 219.21 175.981 219.483 C 175.594 219.75 175.401 220.166 175.401 220.733 C 175.414 221.173 175.577 221.546 175.891 221.853 C 176.197 222.16 176.587 222.443 177.061 222.703 C 177.527 222.963 178.041 223.213 178.601 223.453 C 179.154 223.7 179.664 223.983 180.131 224.303 C 180.604 224.623 180.997 224.996 181.311 225.423 C 181.631 225.85 181.791 226.366 181.791 226.973 C 181.791 227.686 181.637 228.256 181.331 228.683 C 181.024 229.116 180.637 229.453 180.171 229.693 C 179.704 229.933 179.191 230.096 178.631 230.183 C 178.071 230.263 177.541 230.303 177.041 230.303 C 176.561 230.303 176.121 230.273 175.721 230.213 C 175.327 230.153 174.987 230.09 174.701 230.023 C 174.361 229.936 174.054 229.84 173.781 229.733 L 174.141 228.273 C 174.414 228.393 174.707 228.496 175.021 228.583 C 175.301 228.65 175.611 228.713 175.951 228.773 C 176.291 228.833 176.654 228.863 177.041 228.863 C 177.507 228.863 177.937 228.833 178.331 228.773 C 178.717 228.713 179.054 228.62 179.341 228.493 C 179.627 228.36 179.854 228.183 180.021 227.963 C 180.181 227.75 180.261 227.486 180.261 227.173 C 180.247 226.706 180.094 226.326 179.801 226.033 C 179.507 225.74 179.117 225.456 178.631 225.183 C 178.144 224.916 177.624 224.656 177.071 224.403 C 176.511 224.15 175.997 223.863 175.531 223.543 C 175.057 223.216 174.664 222.83 174.351 222.383 C 174.031 221.943 173.871 221.393 173.871 220.733 C 173.871 220.346 173.937 219.966 174.071 219.593 C 174.204 219.226 174.427 218.896 174.741 218.603 C 175.061 218.316 175.477 218.083 175.991 217.903 C 176.497 217.723 177.127 217.633 177.881 217.633 C 178.314 217.633 178.727 217.653 179.121 217.693 C 179.507 217.74 179.844 217.786 180.131 217.833 C 180.471 217.893 180.791 217.96 181.091 218.033 ZM 190.155 228.653 L 190.425 229.853 C 190.152 229.94 189.869 230.013 189.575 230.073 C 189.282 230.133 188.959 230.186 188.605 230.233 C 188.245 230.28 187.875 230.303 187.495 230.303 C 186.895 230.303 186.335 230.22 185.815 230.053 C 185.302 229.886 184.852 229.616 184.465 229.243 C 184.085 228.87 183.785 228.386 183.565 227.793 C 183.339 227.2 183.225 226.473 183.225 225.613 C 183.225 224.833 183.335 224.143 183.555 223.543 C 183.769 222.95 184.065 222.453 184.445 222.053 C 184.819 221.653 185.262 221.35 185.775 221.143 C 186.282 220.943 186.835 220.843 187.435 220.843 C 188.029 220.843 188.539 220.956 188.965 221.183 C 189.399 221.41 189.759 221.716 190.045 222.103 C 190.325 222.496 190.535 222.953 190.675 223.473 C 190.809 224 190.875 224.55 190.875 225.123 L 190.605 225.913 L 184.795 225.913 C 184.795 226.286 184.842 226.66 184.935 227.033 C 185.035 227.406 185.202 227.743 185.435 228.043 C 185.669 228.343 185.975 228.583 186.355 228.763 C 186.729 228.95 187.199 229.043 187.765 229.043 C 188.125 229.043 188.455 229.023 188.755 228.983 C 189.055 228.943 189.315 228.896 189.535 228.843 C 189.755 228.79 189.962 228.726 190.155 228.653 Z M 184.845 224.763 L 189.385 224.763 C 189.385 224.676 189.365 224.49 189.325 224.203 C 189.292 223.916 189.209 223.616 189.075 223.303 C 188.942 222.99 188.739 222.71 188.465 222.463 C 188.192 222.223 187.825 222.103 187.365 222.103 C 186.865 222.103 186.452 222.206 186.125 222.413 C 185.799 222.626 185.542 222.876 185.355 223.163 C 185.162 223.45 185.029 223.743 184.955 224.043 C 184.882 224.343 184.845 224.583 184.845 224.763 ZM 192.85 230.073 L 192.85 222.473 C 192.85 222.2 192.82 221.77 192.76 221.183 L 194.1 221.003 L 194.24 222.313 L 194.26 222.313 C 194.474 222.04 194.684 221.8 194.89 221.593 C 195.09 221.393 195.304 221.216 195.53 221.063 C 195.75 220.916 195.964 220.843 196.17 220.843 C 196.444 220.83 196.827 220.86 197.32 220.933 L 196.99 222.313 C 196.597 222.24 196.324 222.21 196.17 222.223 C 195.964 222.223 195.747 222.32 195.52 222.513 C 195.294 222.706 195.094 222.91 194.92 223.123 C 194.707 223.39 194.497 223.69 194.29 224.023 L 194.29 230.073 L 192.85 230.073 ZM 201.114 230.073 L 197.784 221.023 L 199.364 221.023 L 201.564 227.413 L 201.964 228.833 L 201.974 228.833 L 202.394 227.413 L 204.734 221.023 L 206.244 221.023 L 202.734 230.073 L 201.114 230.073 ZM 207.703 230.073 L 207.703 221.003 L 209.143 220.843 L 209.143 230.073 L 207.703 230.073 Z M 207.463 218.423 C 207.463 218.15 207.556 217.92 207.743 217.733 C 207.93 217.546 208.16 217.453 208.433 217.453 C 208.726 217.453 208.97 217.546 209.163 217.733 C 209.363 217.92 209.463 218.15 209.463 218.423 C 209.463 218.703 209.363 218.936 209.163 219.123 C 208.97 219.31 208.726 219.403 208.433 219.403 C 208.16 219.403 207.93 219.31 207.743 219.123 C 207.556 218.936 207.463 218.703 207.463 218.423 ZM 217.634 221.123 L 217.344 222.333 C 217.144 222.286 216.864 222.236 216.504 222.183 C 216.144 222.13 215.777 222.103 215.404 222.103 C 214.864 222.103 214.424 222.21 214.084 222.423 C 213.737 222.636 213.467 222.916 213.274 223.263 C 213.087 223.603 212.957 223.98 212.884 224.393 C 212.81 224.806 212.774 225.213 212.774 225.613 C 212.774 226.22 212.85 226.743 213.004 227.183 C 213.164 227.623 213.374 227.98 213.634 228.253 C 213.887 228.533 214.184 228.733 214.524 228.853 C 214.857 228.98 215.21 229.043 215.584 229.043 C 215.837 229.043 216.08 229.03 216.314 229.003 C 216.547 228.97 216.764 228.933 216.964 228.893 C 217.157 228.853 217.344 228.803 217.524 228.743 L 217.814 229.943 C 217.56 230.016 217.327 230.076 217.114 230.123 C 216.894 230.176 216.637 230.22 216.344 230.253 C 216.05 230.286 215.737 230.303 215.404 230.303 C 214.744 230.303 214.154 230.22 213.634 230.053 C 213.12 229.886 212.687 229.616 212.334 229.243 C 211.98 228.87 211.71 228.383 211.524 227.783 C 211.337 227.183 211.244 226.453 211.244 225.593 C 211.244 224.753 211.36 224.03 211.594 223.423 C 211.827 222.816 212.137 222.323 212.524 221.943 C 212.904 221.57 213.344 221.293 213.844 221.113 C 214.344 220.933 214.864 220.843 215.404 220.843 C 215.69 220.843 215.97 220.856 216.244 220.883 C 216.51 220.916 216.747 220.95 216.954 220.983 C 217.194 221.03 217.42 221.076 217.634 221.123 ZM 225.801 228.653 L 226.071 229.853 C 225.798 229.94 225.514 230.013 225.221 230.073 C 224.928 230.133 224.604 230.186 224.251 230.233 C 223.891 230.28 223.521 230.303 223.141 230.303 C 222.541 230.303 221.981 230.22 221.461 230.053 C 220.948 229.886 220.498 229.616 220.111 229.243 C 219.731 228.87 219.431 228.386 219.211 227.793 C 218.984 227.2 218.871 226.473 218.871 225.613 C 218.871 224.833 218.981 224.143 219.201 223.543 C 219.414 222.95 219.711 222.453 220.091 222.053 C 220.464 221.653 220.908 221.35 221.421 221.143 C 221.928 220.943 222.481 220.843 223.081 220.843 C 223.674 220.843 224.184 220.956 224.611 221.183 C 225.044 221.41 225.404 221.716 225.691 222.103 C 225.971 222.496 226.181 222.953 226.321 223.473 C 226.454 224 226.521 224.55 226.521 225.123 L 226.251 225.913 L 220.441 225.913 C 220.441 226.286 220.488 226.66 220.581 227.033 C 220.681 227.406 220.848 227.743 221.081 228.043 C 221.314 228.343 221.621 228.583 222.001 228.763 C 222.374 228.95 222.844 229.043 223.411 229.043 C 223.771 229.043 224.101 229.023 224.401 228.983 C 224.701 228.943 224.961 228.896 225.181 228.843 C 225.401 228.79 225.608 228.726 225.801 228.653 Z M 220.491 224.763 L 225.031 224.763 C 225.031 224.676 225.011 224.49 224.971 224.203 C 224.938 223.916 224.854 223.616 224.721 223.303 C 224.588 222.99 224.384 222.71 224.111 222.463 C 223.838 222.223 223.471 222.103 223.011 222.103 C 222.511 222.103 222.098 222.206 221.771 222.413 C 221.444 222.626 221.188 222.876 221.001 223.163 C 220.808 223.45 220.674 223.743 220.601 224.043 C 220.528 224.343 220.491 224.583 220.491 224.763 Z" transform="matrix(1, 0, 0, 1, 0, 0)" style="fill: rgb(255, 255, 255); white-space: pre;"/>
</svg>