<?xml version="1.0" encoding="utf-8"?>
<svg viewBox="306.775 141.106 89.373 108.063" width="89.373" height="108.063" xmlns="http://www.w3.org/2000/svg">
  <g transform="matrix(0.271021, 0, 0, 0.271021, 290.177189, 131.246126)">
    <g fill-rule="evenodd" stroke-width="5">
      <path d="m189.33 276.57l-121.69 137.6c-13.07 15.271-4.3119 29.769 10.07 14.356 5.1407-6.0988 125.38-137.36 130.32-141.92 8.8997-9.141-10.57-23.696-18.695-10.037z" fill="#fff" stroke="#000"/>
      <path d="m65.352 433.19l6.6135 0.0824 131.66-141.49-8.8882-5.8528-129.39 147.26z" fill-opacity=".1"/>
      <path d="m184.98 299.54c-45.203-31.311-81.552-73.358-72.11-142.2 10.729-78.22 82.76-130.54 154.67-118.95 80.675 13.009 134.3 97.983 121.61 182.93-14.091 94.308-136.38 158.65-204.17 78.214z" fill="#f84f73"/>
      <path d="m251.37 185.3c1.7262 47.638-48.108 60.195-63.924 54.727-7.6778 14.964-38.63 12.609-51.805 11.658-13.017-19.386-19.666-42.442-21.734-61.781 10.993 10.102 42.684 15.87 56.168 20.332 19.489-6.208 42.36-17.555 66.206-21.678-7.7924-19.01 15.213-18.218 15.089-3.2576z" fill="#fff"/>
      <path d="m248.18 187.19c-2.0624 48.203-47.026 54.539-62.841 49.071-7.6778 14.964-41.878 8.65-55.053 7.6992-8.6872-15.427-11.006-26.606-15.78-45.38 10.993 10.102 42.684 11.911 56.168 16.373 19.489-6.208 45.066-19.252 68.912-23.375-7.7923-19.01 8.7184-19.349 8.5939-4.3887z" fill="#ff001d"/>
      <path d="m230.45 163.05c-31.392 5.0901-54.124 1.1311-68.737-6.2212-21.108-5.0901-35.18-18.098-40.593-29.409 5.9536-14.139 17.32-30.54 30.309-46.942 15.155 9.6146 13.531 20.926 30.309 37.327s48.17 28.278 63.325 36.196c4.8711 5.0901-7.0361 17.532-14.613 9.0491z" fill="#fff"/>
      <path d="m231.97 159.76c-31.392 5.0901-55.206 1.1312-69.82-6.2212-21.108-5.0901-34.098-18.098-39.51-29.409 5.9536-14.139 11.366-22.623 24.356-39.024 15.155 9.6146 16.237 19.795 33.016 36.196 16.778 16.401 44.382 25.45 59.536 33.368 4.8712 5.0901 0 13.574-7.5773 5.0901z" fill="#ff001d"/>
      <path d="m256.99 155.44c-3.2474-16.967-2.1649-45.245 7.5774-69.564 4.3299-12.442-0.54126-26.582 12.99-42.417 11.907 1.1311 63.325 32.237 64.949 39.024 1.6237 6.7868-25.438 30.54-30.851 33.368-5.4124 2.8278-31.933 15.836-33.016 63.909 0 2.2623-17.861-26.016-21.65-24.319z" fill="#fff"/>
      <path d="m261.74 160.89c-3.2475-16.967-3.2475-50.901 6.4948-75.22 4.3299-12.442 2.165-25.45 15.696-41.286 11.907 1.1311 53.582 27.713 55.206 34.5 1.6237 6.7868-24.356 29.975-29.768 32.803-5.4124 2.8278-32.474 16.401-33.557 64.474 0 2.2623-10.284-16.967-14.072-15.27z" fill="#ff001d"/>
      <path d="m277.43 201.87c19.485-10.18 62.242-15.27 69.82-7.9179 13.531-1.6967 39.51-15.27 40.052-2.8278 1.6237 19.795-11.907 70.696-17.861 76.351-8.1186 0.56555-23.273-23.188-34.098-15.836 0-9.6146-38.428-24.885-68.737-19.795-6.4949-4.5245-5.9536-26.582 10.825-29.975z" fill="#fff"/>
      <path d="m277.98 205.57c19.485-10.18 61.16-14.139 68.737-6.7868 13.531-1.6967 40.593-13.574 41.134-1.1311 1.6237 19.795-10.284 59.384-16.237 65.04-8.1186 0.56558-23.273-22.623-34.098-15.27 0-9.6146-37.887-23.754-68.196-18.664-4.8712-3.9589-8.1186-19.795 8.6598-23.188z" fill="#ff001d"/>
      <path d="m247.61 250.59c8.1186 1.1311 25.979 26.016 21.65 45.811 8.6598 10.746 12.99 29.975 2.165 36.762-11.907 3.959-58.454-5.6556-60.078-14.705-1.6237-9.049 3.2474-11.311 7.5773-15.836 8.1186-11.311 5.4124-31.106 2.7062-43.548 3.2475-10.18 15.696-15.27 25.979-8.4835z" fill="#fff"/>
      <path d="m245.5 252.51c8.1186 1.1311 25.438 23.188 21.108 42.983 8.6598 10.746 11.366 31.106 0.54123 37.893-11.907 3.959-50.335-4.5245-51.959-13.574-1.6237-9.049 1.0825-10.746 5.4124-15.27 8.1186-11.311 8.1186-32.237 5.4124-44.68 3.2474-10.18 9.201-14.139 19.485-7.3523z" fill="#ff001d"/>
      <path d="m250.89 173.73c7.1982 24.319-26.871 13.792-28.581 8.8021-4.6332-13.523 8.4321-25.184 19.883-26.348 20.484-2.0836 35.509 18.724 35.373 39.145-0.20016 29.969-26.079 65.653-52.76 64.071-35.562-2.109-69.852-52.21-66.776-88.807 3.8703-46.055 51.244-93.757 93.02-88.935 50.597 5.8402 103.58 78.028 97.359 130.75-7.3347 62.136-79.713 99.695-136.56 91.51-65.634-9.4493-109.49-78.144-100.05-146.98 10.729-78.22 82.76-130.54 154.67-118.95 80.675 13.009 134.3 97.983 121.61 182.93-14.091 94.308-136.38 164.25-203.4 75.014" fill="none" stroke="#000"/>
    </g>
  </g>
</svg>