<svg height="511pt" viewBox="-5 0 511 511.99937" width="511pt" xmlns="http://www.w3.org/2000/svg"><path d="m482.691406 358.84375c-35.433594 77.800781-109.832031 134.121094-198.265625 144.011719-147.3125 16.511719-276.355469-98.542969-276.355469-246.867188 0-131.429687 102.066407-239.023437 231.261719-247.839843 5.40625-.363282 10.824219.652343 15.675781 3.039062 8.117188 3.691406 12.25 11.089844 13.429688 12.394531l208.140625 279.683594c11.554687 15.523437 14.488281 37.183594 6.113281 55.578125zm0 0" fill="#af2727"/><path d="m491.210938 337.535156c-30.546876 87.960938-109.152344 153.460938-204.390626 165.035156-59.191406 7.121094-222.945312-74.710937-222.945312-246.582031 0-114.585937 77.582031-211.0625 183.089844-239.746093 7.808594-2.128907 16.402344.570312 21.472656 7.339843l219.945312 295.539063c3.960938 5.390625 4.925782 12.382812 2.828126 18.414062zm0 0" fill="#d63030"/><path d="m492.003906 327.710938c-166.285156 18.691406-303.824218-150.59375-236.996094-316.523438 7.609376 3.460938 11.757813 10.28125 13.429688 12.394531 6.792969 9.128907 209.292969 281.226563 219.945312 295.539063 1.871094 2.546875 3.109376 5.496094 3.621094 8.589844zm0 0" fill="#fc7979"/><path d="m157.796875 475.773438c-122.234375-54.980469-175.9375-199.523438-120.179687-320.496094 1.746093-3.785156.089843-8.273438-3.695313-10.019532-3.792969-1.746093-8.273437-.085937-10.019531 3.699219-59.136719 128.308594-2.4375 282.054688 127.703125 340.585938 3.792969 1.710937 8.269531.023437 9.980469-3.789063 1.710937-3.800781.015624-8.269531-3.789063-9.980468zm0 0"/><path d="m256.503906 0c-91.175781 0-172.351562 47.90625-217.882812 121.550781-2.195313 3.546875-1.097656 8.199219 2.449218 10.394531 3.539063 2.183594 8.195313 1.101563 10.394532-2.453124 42.308594-68.433594 114.15625-110.515626 193.824218-114.136719-5.675781 15.339843-9.769531 31.246093-12.191406 47.429687-.617187 4.125 2.222656 7.96875 6.347656 8.585938 4.125.617187 7.96875-2.226563 8.585938-6.351563 2.144531-14.316406 5.683594-28.402343 10.550781-42.035156 20 26.878906 185.890625 249.785156 221.867188 298.128906-127.890625 7.628907-237.519531-96.261719-234.875-226.984375.085937-4.167968-3.226563-7.617187-7.394531-7.703125-4.152344-.078125-7.617188 3.226563-7.699219 7.398438-2.839844 140.445312 117.335937 251.6875 253.257812 242.1875-41.757812 118.382812-172.34375 189.183593-298.566406 150.109375-3.980469-1.234375-8.210937.996094-9.445313 4.980468-1.234374 3.984376.996094 8.210938 4.980469 9.445313 75.386719 23.335937 161.5 11.527344 229.972657-40.21875 46.292968-34.980469 79.015624-86.246094 91.109374-131 2.152344-7.988281-241.699218-329.328125-245.285156-329.328125zm0 0"/><path d="m85.605469 353.753906c-19.097657 0-34.082031-9.914062-34.082031-27.558594 0-4.109374-2.417969-6.765624-8.21875-6.765624-4.59375 0-7.738282 2.171874-7.738282 7.976562 0 21.996094 18.132813 41.089844 50.277344 41.089844 56.835938 0 49.359375-54.117188 50.035156-55.835938 0-36.257812-21.753906-49.554687-50.035156-49.554687h-26.34375l3.867188-58.011719h58.496093c7.039063 0 7.1875-14.742188 0-14.742188h-67.683593c-3.140626 0-4.589844 2.414063-5.074219 6.039063-3.007813 43.515625-5.078125 72.304687-5.078125 74.449219 0 3.386718 1.449218 6.042968 8.21875 6.042968h33.601562c39.367188 0 33.5 38.542969 34.082032 40.367188-.003907 24.898438-12.8125 36.503906-34.324219 36.503906zm0 0"/><path d="m257.945312 316.769531v-74.933593c0-37.464844-21.996093-51.484376-50.273437-51.484376-28.28125 0-50.277344 14.019532-50.277344 51.484376v74.933593c0 37.707031 21.996094 51.726563 50.277344 51.726563s50.273437-14.019532 50.273437-51.726563zm-84.597656 0v-74.933593c0-25.136719 12.808594-36.738282 34.324219-36.738282 21.511719 0 34.324219 11.601563 34.324219 36.738282v74.933593c0 25.378907-12.8125 36.984375-34.324219 36.984375-21.515625 0-34.324219-11.605468-34.324219-36.984375zm0 0"/><path d="m341.386719 405.871094v23.527344c0 15.414062 10.058593 20.929687 23.199219 20.929687 12.984374 0 23.042968-5.515625 23.042968-20.929687v-23.527344c0-15.25-10.058594-20.929688-23.042968-20.929688-13.140626 0-23.199219 5.679688-23.199219 20.929688zm14.117187 0c0-6.003906 3.40625-8.761719 9.082032-8.761719 5.679687 0 9.25 2.757813 9.25 8.761719v23.527344c0 6.003906-3.570313 8.761718-9.25 8.761718-5.675782 0-9.082032-2.757812-9.082032-8.761718zm0 0"/><path d="m350.960938 328.15625c-61.152344 124.316406-59.0625 118.476562-59.0625 121.039062 0 3.40625 3.085937 7.136719 7.628906 7.136719 2.753906 0 5.351562-1.296875 6.324218-3.566406 61.632813-124.960937 59.058594-117.617187 59.058594-120.71875 0-6.855469-10.730468-10.335937-13.949218-3.890625zm0 0"/><path d="m291.410156 331.238281c-13.140625 0-23.199218 5.679688-23.199218 20.929688v23.527343c0 15.25 10.058593 20.929688 23.199218 20.929688 12.984375 0 23.042969-5.679688 23.042969-20.929688v-23.527343c0-15.253907-10.058594-20.929688-23.042969-20.929688zm9.25 44.457031c0 6.003907-3.570312 8.757813-9.25 8.757813-5.675781 0-9.085937-2.753906-9.085937-8.757813v-23.527343c0-6.003907 3.410156-8.761719 9.085937-8.761719 5.679688 0 9.25 2.757812 9.25 8.761719zm0 0"/><path d="m107.816406 157.183594v-26.140625c0-15.644531-9.652344-21.453125-22.019531-21.453125-12.363281 0-21.921875 5.808594-21.921875 21.453125v26.140625c0 15.648437 9.558594 21.457031 21.921875 21.457031 12.367187 0 22.019531-5.808594 22.019531-21.457031zm-31.761718 0v-26.140625c0-7.398438 3.558593-10.773438 9.742187-10.773438 6.089844 0 9.839844 3.375 9.839844 10.773438v26.140625c0 7.402344-3.75 10.773437-9.839844 10.773437-6.183594 0-9.742187-3.371093-9.742187-10.773437zm0 0"/><path d="m164.683594 120.269531c2.4375 0 3.75-2.53125 3.75-5.433593 0-2.527344-1.125-5.246094-3.75-5.246094h-32.695313c-2.71875 0-5.339843 1.3125-5.339843 3.839844v60.804687c0 5.144531 12.179687 5.089844 12.179687 0v-25.671875h14.332031c2.625 0 3.75-2.527344 3.75-4.683594 0-2.527344-1.3125-4.871094-3.75-4.871094h-14.332031v-18.738281zm0 0"/><path d="m220.714844 120.269531c2.4375 0 3.746094-2.53125 3.746094-5.433593 0-2.527344-1.121094-5.246094-3.746094-5.246094h-32.699219c-2.71875 0-5.339844 1.3125-5.339844 3.839844v60.804687c0 5.144531 12.179688 5.089844 12.179688 0v-25.671875h14.335937c2.621094 0 3.746094-2.527344 3.746094-4.683594 0-2.527344-1.3125-4.871094-3.746094-4.871094h-14.335937v-18.738281zm0 0"/></svg>