<?xml version="1.0"?>
<svg xmlns="http://www.w3.org/2000/svg" width="512" height="512" viewBox="0 0 512 512"><g><g><path d="M200,320v24l-40,9.94V496H16V340a19.994,19.994,0,0,1,20-20Z" fill="#d80027"/><path d="M496,340V496H352V353.94L312,344V320H476A19.994,19.994,0,0,1,496,340Z" fill="#d80027"/><g><g><path d="M352,353.94V496H160V353.94L200,344l15.38,9.07c.5.3,1.01.59,1.52.87a79.971,79.971,0,0,0,78.2,0c.51-.28,1.02-.57,1.52-.87L312,344Z" fill="#ffda44"/><path d="M160,361.88V496H48l2.75-73.63a80.021,80.021,0,0,1,60.44-56.31L128,361.88Z" fill="#ffda44"/><path d="M464,496H352V361.88h32l16.81,4.18a80.021,80.021,0,0,1,60.44,56.31Z" fill="#ffda44"/><path d="M152,168v64H140a19.994,19.994,0,0,1-20-20V188a19.994,19.994,0,0,1,20-20Z" fill="#ffdaaa"/><path d="M392,188v24a19.994,19.994,0,0,1-20,20H360V168h12A19.994,19.994,0,0,1,392,188Z" fill="#ffdaaa"/><path d="M360,144v80c0,36.94-26.47,69.38-56,87.83V280a40,40,0,0,0-40-40H248a40,40,0,0,0-40,40v31.83a138.815,138.815,0,0,1-19-14.29c-21-18.82-37-44.82-37-73.54V144Z" fill="#ffdaaa"/><path d="M360,120v24H152V120a104,104,0,1,1,208,0Z" fill="#d80027"/></g><path d="M360,144H152c0-22.09,46.56-40,104-40S360,121.91,360,144Z" fill="#ffda44"/></g><path d="M312,320v24l-15.38,9.07c-.5.3-1.01.59-1.52.87a79.971,79.971,0,0,1-78.2,0c-.51-.28-1.02-.57-1.52-.87L200,344V320h23.26c11.49,5.15,22.85,8,32.74,8s21.25-2.85,32.74-8Z" fill="#ffdaaa"/><rect x="128" y="312" width="32" height="184" fill="#5f4d37"/><rect x="352" y="312" width="32" height="184" fill="#5f4d37"/><path d="M304,280v31.83A127.768,127.768,0,0,1,288.74,320c-11.49,5.15-22.85,8-32.74,8s-21.25-2.85-32.74-8A127.768,127.768,0,0,1,208,311.83V280a40,40,0,0,1,40-40h16A40,40,0,0,1,304,280Z" fill="#aa6100"/></g><g><circle cx="208" cy="192" r="16"/><circle cx="304" cy="192" r="16"/><path d="M272,264H240a8,8,0,0,0,0,16h32a8,8,0,0,0,0-16Z"/><path d="M476,312H392a8,8,0,0,0-8-8H352a8,8,0,0,0-8,8H320v-.34a8.275,8.275,0,0,0-.1-1.23c22.48-17.33,41.26-42.19,46.58-70.43H372a28.031,28.031,0,0,0,28-28V188a28.031,28.031,0,0,0-28-28h-4V120a112,112,0,0,0-224,0v40h-4a28.031,28.031,0,0,0-28,28v24a28.031,28.031,0,0,0,28,28h5.52c5.32,28.24,24.1,53.1,46.58,70.43a8.275,8.275,0,0,0-.1,1.23V312H168a8,8,0,0,0-8-8H128a8,8,0,0,0-8,8H36A28.031,28.031,0,0,0,8,340V496a8,8,0,0,0,8,8H496a8,8,0,0,0,8-8V340A28.031,28.031,0,0,0,476,312ZM368,176h4a12.01,12.01,0,0,1,12,12v24a12.01,12.01,0,0,1-12,12h-4ZM144,224h-4a12.01,12.01,0,0,1-12-12V188a12.01,12.01,0,0,1,12-12h4ZM120,488h-8V456a8,8,0,0,0-16,0v32H56.3l2.41-64.34a71.856,71.856,0,0,1,54.13-49.77,2.864,2.864,0,0,0,.28-.07l6.88-1.71Zm0-132.37-10.6,2.63a87.81,87.81,0,0,0-66.34,61.91,7.683,7.683,0,0,0-.3,1.9L40.29,488H24V340a12.01,12.01,0,0,1,12-12h84ZM152,488H136V320h16ZM256,24a96.107,96.107,0,0,1,95.98,94.36C331.06,103.71,292.75,96,256,96s-75.06,7.71-95.98,22.36A96.107,96.107,0,0,1,256,24Zm92.16,112H163.84c10.82-11.76,43.95-24,92.16-24S337.34,124.24,348.16,136ZM160,224V152H352v72c0,13.75-4.46,40.8-34.34,67.58q-2.76,2.475-5.66,4.79V280a48.051,48.051,0,0,0-48-48H248a48.051,48.051,0,0,0-48,48v16.37q-2.9-2.31-5.66-4.79C164.46,264.8,160,237.75,160,224Zm136,56v27.29C282.13,315.3,267.8,320,256,320s-26.13-4.7-40-12.71V280a32.036,32.036,0,0,1,32-32h16A32.036,32.036,0,0,1,296,280ZM168,328h24v9.74l-24,5.97Zm80,160H168V360.2l30.75-7.65,12.57,7.41A87.852,87.852,0,0,0,248,371.77ZM219.44,346.18,208,339.43V321.1c16.38,9.48,33.46,14.9,48,14.9s31.62-5.42,48-14.9v18.33l-11.44,6.75A72.08,72.08,0,0,1,219.44,346.18ZM344,488H264V371.77a87.852,87.852,0,0,0,36.68-11.81l12.57-7.41L344,360.2Zm0-144.29-24-5.97V328h24ZM376,488H360V320h16Zm40,0V456a8,8,0,0,0-16,0v32h-8V372.11l6.88,1.71a2.864,2.864,0,0,0,.28.07,71.856,71.856,0,0,1,54.13,49.77L455.7,488Zm72,0H471.71l-2.47-65.93a7.683,7.683,0,0,0-.3-1.9,87.81,87.81,0,0,0-66.34-61.91L392,355.63V328h84a12.01,12.01,0,0,1,12,12Z"/></g></g></svg>
