<svg height="512pt" viewBox="0 0 512 512.00151" width="512pt" xmlns="http://www.w3.org/2000/svg"><path d="m290.132812 298.667969v59.734375h-241.320312c-10.6875.007812-20.9375-4.230469-28.492188-11.789063-7.554687-7.554687-11.796874-17.804687-11.785156-28.488281v-4.78125c-.011718-20.066406 14.769532-37.070312 34.644532-39.847656l47.1875 40.445312c6.769531 5.835938 16.890624 5.464844 23.210937-.851562l24.234375-24.234375 29.355469 25.085937c6.769531 5.835938 16.890625 5.464844 23.210937-.851562l28.246094-28.246094 33.878906 29.097656c6.765625 5.835938 16.886719 5.464844 23.207032-.851562zm0 0" fill="#f44335"/><path d="m503.46875 313.34375v4.78125c.007812 10.683594-4.234375 20.933594-11.789062 28.488281-7.554688 7.558594-17.804688 11.796875-28.488282 11.789063h-104.789062v-85.335938h104.789062c10.683594-.007812 20.933594 4.234375 28.488282 11.789063 7.554687 7.554687 11.796874 17.804687 11.789062 28.488281zm0 0" fill="#c52828"/><path d="m477.867188 313.34375v4.78125c.007812 10.683594-4.230469 20.933594-11.785157 28.488281-7.558593 7.558594-17.808593 11.796875-28.492187 11.789063h-79.1875v-85.335938h79.1875c10.683594-.007812 20.933594 4.234375 28.492187 11.789063 7.554688 7.554687 11.792969 17.804687 11.785157 28.488281zm0 0" fill="#f44335"/><path d="m162.132812 110.933594h187.734376c75.40625 0 136.535156 61.128906 136.535156 136.535156v8.53125c0 9.425781-7.644532 17.066406-17.066406 17.066406h-426.667969c-9.425781 0-17.066407-7.640625-17.066407-17.066406v-8.53125c0-75.40625 61.128907-136.535156 136.53125-136.535156zm0 0" fill="#f57c00"/><path d="m162.132812 110.933594h162.132813c75.40625 0 136.535156 61.128906 136.535156 136.535156v8.53125c0 9.425781-7.640625 17.066406-17.066406 17.066406h-401.066406c-9.425781 0-17.066407-7.640625-17.066407-17.066406v-8.53125c0-75.40625 61.128907-136.535156 136.53125-136.535156zm0 0" fill="#ff9801"/><path d="m158.722656 443.734375h285.011719c18.851563 0 34.132813-15.28125 34.132813-34.132813v-34.132812c-.027344-9.414062-7.652344-17.039062-17.066407-17.066406h-409.601562c-9.414063.027344-17.035157 7.652344-17.066407 17.066406v34.132812c0 18.851563 15.285157 34.132813 34.132813 34.132813zm0 0" fill="#f57c00"/><path d="m151.535156 443.734375h268.570313c18.300781-.558594 32.691406-15.832031 32.160156-34.132813v-34.132812c.238281-9.140625-6.945313-16.761719-16.082031-17.066406h-385.964844c-9.136719.304687-16.320312 7.925781-16.085938 17.066406v34.132812c-.53125 18.300782 13.863282 33.574219 32.164063 34.132813zm0 0" fill="#ff9801"/><path d="m119.46875 503.210938c-23.496094 0-42.539062-19.042969-42.539062-42.539063 0-23.492187 19.042968-42.535156 42.539062-42.535156 23.492188 0 42.539062 19.042969 42.539062 42.535156-.023437 23.484375-19.058593 42.515625-42.539062 42.539063zm0 0" fill="#607d8b"/><path d="m119.46875 477.613281c-9.355469 0-16.941406-7.585937-16.941406-16.941406 0-9.351563 7.585937-16.9375 16.941406-16.9375s16.9375 7.585937 16.9375 16.9375c-.007812 9.351563-7.585938 16.929687-16.9375 16.941406zm0 0" fill="#cfd8dc"/><path d="m392.535156 418.136719c-4.308594.003906-8.589844.636719-12.714844 1.875-17.710937 5.632812-29.742187 22.078125-29.742187 40.660156 0 18.585937 12.03125 35.03125 29.742187 40.664063 4.125 1.238281 8.40625 1.871093 12.714844 1.875 23.492188 0 42.539063-19.042969 42.539063-42.539063 0-23.492187-19.046875-42.535156-42.539063-42.535156zm0 0" fill="#37474f"/><path d="m379.820312 420.011719c-17.710937 5.632812-29.742187 22.078125-29.742187 40.660156 0 18.585937 12.03125 35.03125 29.742187 40.664063 17.710938-5.632813 29.738282-22.078126 29.738282-40.664063 0-18.582031-12.027344-35.027344-29.738282-40.660156zm0 0" fill="#607d8b"/><path d="m290.132812 273.066406v25.601563l-14.421874 14.421875c-6.320313 6.316406-16.441407 6.6875-23.207032.851562l-33.878906-29.097656 11.777344-11.777344zm0 0" fill="#4caf50"/><path d="m230.402344 273.066406-40.023438 40.023438c-6.320312 6.316406-16.441406 6.6875-23.210937.851562l-29.355469-25.085937-18.34375-15.789063zm0 0" fill="#4caf50"/><path d="m358.402344 273.066406v110.933594c0 9.425781-7.644532 17.066406-17.066406 17.066406-9.425782 0-17.070313-7.640625-17.070313-17.066406v-17.066406c0 9.425781-7.640625 17.066406-17.066406 17.066406s-17.066407-7.640625-17.066407-17.066406v-93.867188zm0 0" fill="#ffeb3a"/><path d="m137.8125 288.855469-24.234375 24.234375c-6.320313 6.316406-16.441406 6.6875-23.210937.851562l-47.1875-40.445312c1.863281-.273438 3.746093-.417969 5.632812-.429688h70.65625zm0 0" fill="#4caf50"/><path d="m211.710938 59.394531-79.640626-14.4375c-1.804687-.332031-3.199218-1.777343-3.457031-3.597656-.257812-1.816406.671875-3.59375 2.3125-4.417969l56.808594-28.40625zm0 0" fill="#f44335"/><path d="m392.660156 477.613281c-9.351562 0-16.9375-7.585937-16.9375-16.941406 0-9.351563 7.585938-16.9375 16.9375-16.9375 9.355469 0 16.941406 7.585937 16.941406 16.9375-.015624 9.351563-7.589843 16.925781-16.941406 16.941406zm0 0" fill="#cfd8dc"/><path d="m119.46875 511.875c-28.277344 0-51.203125-22.925781-51.203125-51.203125 0-28.273437 22.925781-51.199219 51.203125-51.199219s51.199219 22.925782 51.199219 51.199219c-.035157 28.265625-22.9375 51.167969-51.199219 51.203125zm0-85.335938c-18.851562 0-34.132812 15.28125-34.132812 34.132813s15.28125 34.136719 34.132812 34.136719 34.132812-15.285156 34.132812-34.136719-15.28125-34.132813-34.132812-34.132813zm0 0"/><path d="m392.535156 511.875c-28.277344 0-51.199218-22.925781-51.199218-51.203125 0-28.273437 22.921874-51.199219 51.199218-51.199219s51.199219 22.925782 51.199219 51.199219c-.035156 28.265625-22.9375 51.167969-51.199219 51.203125zm0-85.335938c-18.851562 0-34.132812 15.28125-34.132812 34.132813s15.28125 34.136719 34.132812 34.136719c18.851563 0 34.132813-15.285156 34.132813-34.136719s-15.28125-34.132813-34.132813-34.132813zm0 0"/><path d="m119.46875 511.875h-68.269531c-4.710938 0-8.53125-3.820312-8.53125-8.535156 0-4.710938 3.820312-8.53125 8.53125-8.53125h68.269531c4.710938 0 8.53125 3.820312 8.53125 8.53125 0 4.714844-3.820312 8.535156-8.53125 8.535156zm0 0"/><path d="m17.066406 512h-8.53125c-4.714844 0-8.535156-3.820312-8.535156-8.53125 0-4.714844 3.820312-8.535156 8.535156-8.535156h8.53125c4.714844 0 8.535156 3.820312 8.535156 8.535156 0 4.710938-3.820312 8.53125-8.535156 8.53125zm0 0"/><path d="m392.535156 511.875h-68.269531c-4.710937 0-8.53125-3.820312-8.53125-8.535156 0-4.710938 3.820313-8.53125 8.53125-8.53125h68.269531c4.710938 0 8.53125 3.820312 8.53125 8.53125 0 4.714844-3.820312 8.535156-8.53125 8.535156zm0 0"/><path d="m290.132812 512h-8.53125c-4.714843 0-8.535156-3.820312-8.535156-8.53125 0-4.714844 3.820313-8.535156 8.535156-8.535156h8.53125c4.714844 0 8.535157 3.820312 8.535157 8.535156 0 4.710938-3.820313 8.53125-8.535157 8.53125zm0 0"/><path d="m110.933594 170.667969c-3.449219 0-6.5625-2.078125-7.882813-5.269531-1.320312-3.1875-.589843-6.855469 1.851563-9.296876l8.53125-8.53125c3.347656-3.234374 8.671875-3.191406 11.964844.101563 3.289062 3.292969 3.335937 8.613281.101562 11.960937l-8.53125 8.535157c-1.601562 1.601562-3.773438 2.5-6.035156 2.5zm0 0"/><path d="m179.199219 153.601562c-3.449219 0-6.558594-2.078124-7.878907-5.269531-1.320312-3.1875-.59375-6.855469 1.847657-9.296875l8.53125-8.535156c3.351562-3.230469 8.671875-3.1875 11.964843.105469 3.289063 3.292969 3.335938 8.613281.101563 11.960937l-8.53125 8.535156c-1.601563 1.601563-3.769531 2.5-6.035156 2.5zm0 0"/><path d="m307.199219 153.601562c-3.449219 0-6.558594-2.078124-7.878907-5.269531-1.320312-3.1875-.59375-6.855469 1.847657-9.296875l8.53125-8.535156c3.351562-3.230469 8.671875-3.1875 11.964843.105469 3.289063 3.292969 3.335938 8.613281.101563 11.960937l-8.53125 8.535156c-1.601563 1.601563-3.769531 2.5-6.035156 2.5zm0 0"/><path d="m238.933594 213.335938c-3.449219 0-6.5625-2.082032-7.882813-5.269532-1.320312-3.1875-.589843-6.859375 1.851563-9.296875l8.53125-8.535156c3.347656-3.234375 8.671875-3.1875 11.964844.105469 3.289062 3.289062 3.335937 8.613281.101562 11.960937l-8.53125 8.535157c-1.601562 1.597656-3.773438 2.5-6.035156 2.5zm0 0"/><path d="m170.667969 213.335938c-2.261719 0-4.433594-.902344-6.035157-2.5l-8.53125-8.535157c-3.234374-3.347656-3.1875-8.671875.101563-11.960937 3.292969-3.292969 8.617187-3.339844 11.964844-.105469l8.53125 8.535156c2.441406 2.4375 3.171875 6.109375 1.851562 9.296875-1.320312 3.1875-4.433593 5.269532-7.882812 5.269532zm0 0"/><path d="m85.335938 221.867188c-2.265626 0-4.433594-.898438-6.035157-2.5l-8.53125-8.53125c-3.234375-3.351563-3.191406-8.671876.101563-11.964844 3.292968-3.289063 8.613281-3.335938 11.960937-.101563l8.535157 8.53125c2.441406 2.441407 3.167968 6.109375 1.847656 9.300781-1.320313 3.1875-4.429688 5.265626-7.878906 5.265626zm0 0"/><path d="m384 153.601562-8.53125-8.535156" fill="#d6d3d2"/><path d="m384 162.136719c-2.261719-.003907-4.433594-.902344-6.03125-2.503907l-8.535156-8.53125c-3.234375-3.347656-3.1875-8.671874.105468-11.960937 3.289063-3.292969 8.613282-3.339844 11.960938-.105469l8.535156 8.535156c2.4375 2.4375 3.167969 6.109376 1.847656 9.296876-1.320312 3.1875-4.429687 5.265624-7.882812 5.269531zm0 0"/><path d="m324.265625 204.800781-8.53125-8.53125" fill="#d6d3d2"/><path d="m324.265625 213.335938c-2.261719 0-4.429687-.902344-6.03125-2.5l-8.535156-8.535157c-3.230469-3.347656-3.1875-8.671875.105469-11.960937 3.292968-3.292969 8.613281-3.339844 11.960937-.105469l8.535156 8.535156c2.441407 2.4375 3.167969 6.109375 1.847657 9.296875-1.320313 3.1875-4.429688 5.269532-7.882813 5.269532zm0 0"/><path d="m409.601562 213.335938 8.53125-8.535157" fill="#d6d3d2"/><path d="m409.601562 221.867188c-3.453124 0-6.5625-2.078126-7.882812-5.265626-1.320312-3.191406-.589844-6.859374 1.847656-9.300781l8.535156-8.53125c3.347657-3.234375 8.671876-3.1875 11.960938.101563 3.292969 3.292968 3.339844 8.613281.105469 11.964844l-8.535157 8.53125c-1.597656 1.601562-3.769531 2.5-6.03125 2.5zm0 0"/><path d="m80.214844 452.269531h-11.949219c-23.550781-.03125-42.636719-19.117187-42.664063-42.667969v-34.132812c0-14.140625 11.460938-25.601562 25.597657-25.601562h238.933593c4.714844 0 8.535157 3.820312 8.535157 8.535156 0 4.710937-3.820313 8.53125-8.535157 8.53125h-238.933593c-4.710938 0-8.53125 3.820312-8.53125 8.535156v34.132812c0 14.136719 11.460937 25.601563 25.597656 25.601563h11.949219c4.710937 0 8.53125 3.820313 8.53125 8.53125 0 4.714844-3.820313 8.535156-8.53125 8.535156zm0 0"/><path d="m443.734375 452.269531h-11.945313c-4.714843 0-8.535156-3.820312-8.535156-8.535156 0-4.710937 3.820313-8.53125 8.535156-8.53125h11.945313c14.136719 0 25.601563-11.464844 25.601563-25.601563v-34.132812c0-4.714844-3.824219-8.535156-8.535157-8.535156h-102.398437c-4.714844 0-8.535156-3.820313-8.535156-8.53125 0-4.714844 3.820312-8.535156 8.535156-8.535156h102.398437c14.136719 0 25.601563 11.460937 25.601563 25.601562v34.132812c-.03125 23.550782-19.117188 42.636719-42.667969 42.667969zm0 0"/><path d="m353.28125 452.269531h-194.558594c-4.714844 0-8.535156-3.820312-8.535156-8.535156 0-4.710937 3.820312-8.53125 8.535156-8.53125h194.558594c4.710938 0 8.53125 3.820313 8.53125 8.53125 0 4.714844-3.820312 8.535156-8.53125 8.535156zm0 0"/><path d="m463.191406 366.933594h-104.789062c-4.714844 0-8.535156-3.820313-8.535156-8.53125 0-4.714844 3.820312-8.535156 8.535156-8.535156h104.789062c17.523438-.019532 31.722656-14.21875 31.742188-31.742188v-4.78125c-.019532-17.523438-14.21875-31.722656-31.742188-31.742188h-104.789062c-4.714844 0-8.535156-3.820312-8.535156-8.535156 0-4.710937 3.820312-8.53125 8.535156-8.53125h104.789062c26.941406.03125 48.777344 21.867188 48.808594 48.808594v4.78125c-.03125 26.941406-21.867188 48.777344-48.808594 48.808594zm0 0"/><path d="m290.132812 366.933594h-241.320312c-26.945312-.03125-48.7773438-21.867188-48.8125-48.808594v-4.78125c.0351562-26.941406 21.867188-48.777344 48.8125-48.808594h241.320312c4.714844 0 8.535157 3.820313 8.535157 8.53125 0 4.714844-3.820313 8.535156-8.535157 8.535156h-241.320312c-17.523438.019532-31.726562 14.21875-31.746094 31.742188v4.78125c.019532 17.523438 14.222656 31.722656 31.746094 31.742188h241.320312c4.714844 0 8.535157 3.820312 8.535157 8.535156 0 4.710937-3.820313 8.53125-8.535157 8.53125zm0 0"/><path d="m307.199219 392.535156c-14.136719 0-25.597657-11.460937-25.597657-25.601562v-93.867188c0-4.710937 3.820313-8.53125 8.53125-8.53125 4.714844 0 8.535157 3.820313 8.535157 8.53125v93.867188c0 4.714844 3.820312 8.535156 8.53125 8.535156 4.714843 0 8.535156-3.820312 8.535156-8.535156 0-4.710938 3.820313-8.53125 8.53125-8.53125 4.714844 0 8.535156 3.820312 8.535156 8.53125 0 14.140625-11.460937 25.601562-25.601562 25.601562zm0 0"/><path d="m341.335938 409.601562c-14.140626 0-25.601563-11.460937-25.601563-25.601562v-42.664062c0-4.714844 3.820313-8.535157 8.53125-8.535157 4.714844 0 8.535156 3.820313 8.535156 8.535157v42.664062c0 4.714844 3.820313 8.535156 8.535157 8.535156 4.710937 0 8.53125-3.820312 8.53125-8.535156v-110.933594c0-4.710937 3.820312-8.53125 8.535156-8.53125 4.710937 0 8.53125 3.820313 8.53125 8.53125v110.933594c0 14.140625-11.460938 25.601562-25.597656 25.601562zm0 0"/><path d="m469.335938 281.601562h-426.667969c-14.140625 0-25.601563-11.460937-25.601563-25.601562v-8.53125c.089844-80.082031 64.988282-144.976562 145.066406-145.066406h187.734376c80.082031.089844 144.976562 64.984375 145.066406 145.066406v8.53125c0 6.792969-2.695313 13.300781-7.496094 18.101562-4.800781 4.804688-11.3125 7.5-18.101562 7.5zm-307.203126-162.132812c-70.65625.078125-127.917968 57.339844-128 128v8.53125c0 4.714844 3.820313 8.535156 8.535157 8.535156h426.667969c4.710937 0 8.53125-3.820312 8.53125-8.535156v-8.53125c-.078126-70.660156-57.339844-127.921875-128-128zm0 0"/><path d="m178.289062 326.582031c-6.101562.015625-12.003906-2.15625-16.640624-6.121093l-47.734376-40.957032c-3.371093-3.113281-3.675781-8.335937-.691406-11.820312s8.1875-3.984375 11.78125-1.136719l47.738282 40.960937c3.394531 2.875 8.425781 2.679688 11.585937-.453124l40.023437-40.019532c3.347657-3.234375 8.667969-3.1875 11.960938.105469 3.292969 3.289063 3.339844 8.613281.105469 11.960937l-40.023438 40.019532c-4.804687 4.792968-11.320312 7.476562-18.105469 7.460937zm0 0"/><path d="m101.546875 326.65625c-6.132813-.011719-12.0625-2.214844-16.714844-6.210938l-47.71875-40.898437c-2.449219-1.945313-3.640625-5.070313-3.105469-8.148437.535157-3.078126 2.710938-5.621094 5.671876-6.621094 2.957031-1.003906 6.230468-.308594 8.527343 1.8125l47.699219 40.875c3.382812 2.933594 8.457031 2.753906 11.621094-.410156l24.238281-24.234376c3.347656-3.234374 8.667969-3.1875 11.960937.105469 3.292969 3.292969 3.335938 8.613281.105469 11.960938l-24.238281 24.234375c-4.769531 4.816406-11.265625 7.527344-18.046875 7.535156zm0 0"/><path d="m263.679688 326.65625c-6.132813-.011719-12.0625-2.214844-16.714844-6.210938l-33.914063-29.132812c-2.476562-1.933594-3.695312-5.070312-3.164062-8.171875.527343-3.097656 2.71875-5.652344 5.699219-6.652344 2.980468-.996093 6.269531-.277343 8.558593 1.878907l33.878907 29.105468c3.382812 2.925782 8.449218 2.746094 11.613281-.417968l14.421875-14.417969c3.347656-3.234375 8.671875-3.1875 11.960937.101562 3.292969 3.292969 3.339844 8.613281.105469 11.964844l-14.421875 14.417969c-4.765625 4.808594-11.253906 7.519531-18.023437 7.535156zm0 0"/><path d="m256 162.136719c-3.308594-.003907-6.316406-1.914063-7.722656-4.910157l-42.410156-90.222656-87.894532-15.9375c-3.617187-.652344-6.410156-3.550781-6.933594-7.191406-.519531-3.636719 1.347657-7.203125 4.640626-8.84375l68.265624-34.132812c2.054688-1.027344 4.433594-1.179688 6.605469-.425782 2.148438.761719 3.902344 2.355469 4.863281 4.425782l23.9375 50.765624.101563.207032 44.234375 94.105468c2.003906 4.261719.171875 9.34375-4.09375 11.347657-1.125.53125-2.351562.808593-3.59375.8125zm-109.796875-123.292969 50.722656 9.191406-13.183593-27.964844zm0 0"/><path d="m102.402344 25.601562h-34.136719c-4.710937 0-8.53125-3.820312-8.53125-8.535156 0-4.710937 3.820313-8.53125 8.53125-8.53125h34.136719c4.710937 0 8.53125 3.820313 8.53125 8.53125 0 4.714844-3.820313 8.535156-8.53125 8.535156zm0 0"/><path d="m34.132812 25.601562h-8.53125c-4.714843 0-8.535156-3.820312-8.535156-8.535156 0-4.710937 3.820313-8.53125 8.535156-8.53125h8.53125c4.714844 0 8.535157 3.820313 8.535157 8.53125 0 4.714844-3.820313 8.535156-8.535157 8.535156zm0 0"/><path d="m85.335938 59.734375h-34.136719c-4.710938 0-8.53125-3.820313-8.53125-8.53125 0-4.714844 3.820312-8.535156 8.53125-8.535156h34.136719c4.710937 0 8.53125 3.820312 8.53125 8.535156 0 4.710937-3.820313 8.53125-8.53125 8.53125zm0 0"/><path d="m17.066406 59.734375h-8.53125c-4.714844 0-8.535156-3.820313-8.535156-8.53125 0-4.714844 3.820312-8.535156 8.535156-8.535156h8.53125c4.714844 0 8.535156 3.820312 8.535156 8.535156 0 4.710937-3.820312 8.53125-8.535156 8.53125zm0 0"/><path d="m273.066406 162.136719h-34.132812c-4.710938 0-8.53125-3.824219-8.53125-8.535157 0-4.710937 3.820312-8.535156 8.53125-8.535156h34.132812c4.714844 0 8.535156 3.824219 8.535156 8.535156 0 4.710938-3.820312 8.535157-8.535156 8.535157zm0 0"/></svg>